<svg width="393" height="142" viewBox="0 0 393 142" fill="none" xmlns="http://www.w3.org/2000/svg">
<g filter="url(#filter0_dd_9_871)">
<rect width="390" height="116" transform="translate(2)" fill="white"/>
<path d="M43.8786 22.7231C46.4352 22.7231 48.6599 24.541 48.6599 28.8574V28.874C48.6599 32.9082 46.842 35.2988 43.8288 35.2988C41.6291 35.2988 39.9855 33.9956 39.6037 32.1611L39.5871 32.0698H41.6955L41.7204 32.1528C42.0358 32.9912 42.7746 33.5391 43.8288 33.5391C45.7297 33.5391 46.5349 31.6797 46.6262 29.3887C46.6262 29.2974 46.6345 29.2061 46.6345 29.1147H46.4684C46.0285 30.061 44.9826 30.8994 43.3391 30.8994C41.0397 30.8994 39.4294 29.2227 39.4294 26.9482V26.9316C39.4294 24.4995 41.2805 22.7231 43.8786 22.7231ZM43.8703 29.2559C45.2233 29.2559 46.2609 28.2764 46.2609 26.9233V26.9067C46.2609 25.5371 45.2233 24.4663 43.8952 24.4663C42.5754 24.4663 41.5212 25.5205 41.5212 26.8569V26.8735C41.5212 28.2598 42.509 29.2559 43.8703 29.2559ZM52.0204 27.2388C51.265 27.2388 50.7006 26.6577 50.7006 25.9272C50.7006 25.1885 51.265 24.6157 52.0204 24.6157C52.7841 24.6157 53.3402 25.1885 53.3402 25.9272C53.3402 26.6577 52.7841 27.2388 52.0204 27.2388ZM52.0204 33.3979C51.265 33.3979 50.7006 32.8252 50.7006 32.0864C50.7006 31.3477 51.265 30.7749 52.0204 30.7749C52.7841 30.7749 53.3402 31.3477 53.3402 32.0864C53.3402 32.8252 52.7841 33.3979 52.0204 33.3979ZM61.1915 35V32.7007H55.3312V30.9492C56.8834 28.2515 58.5851 25.4956 60.212 23.022H63.2418V30.9326H64.8522V32.7007H63.2418V35H61.1915ZM57.3233 30.9824H61.2247V24.7319H61.1002C59.8717 26.6079 58.4855 28.8242 57.3233 30.8579V30.9824ZM69.408 35V25.1304H69.2669L66.2869 27.2388V25.2217L69.4163 23.022H71.5496V35H69.408Z" fill="black"/>
<rect opacity="0.35" x="339.172" y="22.5" width="24" height="12" rx="3" stroke="#1C2027"/>
<path opacity="0.4" d="M364.672 26.6666V30.6666C365.477 30.3278 366 29.5398 366 28.6666C366 27.7935 365.477 27.0054 364.672 26.6666Z" fill="#1C2027"/>
<rect x="340.672" y="24" width="21" height="9" rx="1.33333" fill="#1C2027"/>
<path fill-rule="evenodd" clip-rule="evenodd" d="M322.839 25.0674C325.306 25.0675 327.678 25.965 329.465 27.5744C329.6 27.6987 329.815 27.6971 329.948 27.5709L331.235 26.3411C331.302 26.2771 331.339 26.1904 331.339 26.1002C331.338 26.01 331.3 25.9237 331.232 25.8604C326.54 21.6022 319.138 21.6022 314.446 25.8604C314.378 25.9236 314.339 26.0099 314.339 26.1001C314.338 26.1903 314.375 26.277 314.442 26.3411L315.73 27.5709C315.862 27.6973 316.077 27.6989 316.212 27.5744C318 25.9649 320.372 25.0673 322.839 25.0674ZM322.837 29.1752C324.183 29.1752 325.481 29.6733 326.479 30.5728C326.614 30.7005 326.827 30.6977 326.958 30.5666L328.235 29.2824C328.302 29.215 328.34 29.1236 328.339 29.0287C328.338 28.9337 328.298 28.8431 328.23 28.7771C325.191 25.9633 320.486 25.9633 317.447 28.7771C317.379 28.8431 317.34 28.9338 317.339 29.0288C317.338 29.1237 317.375 29.2151 317.443 29.2824L318.719 30.5666C318.85 30.6977 319.063 30.7005 319.198 30.5728C320.195 29.6739 321.492 29.1758 322.837 29.1752ZM325.339 31.8944C325.34 31.9969 325.304 32.0958 325.237 32.1676L323.078 34.557C323.015 34.6272 322.929 34.6667 322.839 34.6667C322.749 34.6667 322.662 34.6272 322.599 34.557L320.44 32.1676C320.373 32.0958 320.337 31.9969 320.339 31.8943C320.341 31.7918 320.381 31.6947 320.451 31.6259C321.829 30.347 323.848 30.347 325.227 31.6259C325.296 31.6947 325.337 31.7919 325.339 31.8944Z" fill="#1C2027"/>
<path fill-rule="evenodd" clip-rule="evenodd" d="M306.939 23.7917C306.939 23.1704 306.461 22.6667 305.872 22.6667H304.805C304.216 22.6667 303.739 23.1704 303.739 23.7917V33.5417C303.739 34.1631 304.216 34.6667 304.805 34.6667H305.872C306.461 34.6667 306.939 34.1631 306.939 33.5417V23.7917ZM299.505 25.0667H300.572C301.161 25.0667 301.639 25.5825 301.639 26.2187V33.5147C301.639 34.151 301.161 34.6667 300.572 34.6667H299.505C298.916 34.6667 298.439 34.151 298.439 33.5147V26.2187C298.439 25.5825 298.916 25.0667 299.505 25.0667ZM295.172 27.6667H294.105C293.516 27.6667 293.039 28.1891 293.039 28.8334V33.5001C293.039 34.1444 293.516 34.6667 294.105 34.6667H295.172C295.761 34.6667 296.239 34.1444 296.239 33.5001V28.8334C296.239 28.1891 295.761 27.6667 295.172 27.6667ZM289.872 30.0667H288.805C288.216 30.0667 287.739 30.5816 287.739 31.2167V33.5167C287.739 34.1519 288.216 34.6667 288.805 34.6667H289.872C290.461 34.6667 290.939 34.1519 290.939 33.5167V31.2167C290.939 30.5816 290.461 30.0667 289.872 30.0667Z" fill="#1C2027"/>
<rect x="134" y="11" width="127" height="37" rx="18.5" fill="#1C2027"/>
<rect x="16" y="62" width="44" height="44" rx="22" fill="#0CC509"/>
<path d="M30 84H46H30Z" fill="#FAFAFC"/>
<path d="M30 84H46" stroke="white" stroke-width="1.5" stroke-linecap="round" stroke-linejoin="round"/>
<path d="M35 89C35 89 30 85.3176 30 84C30 82.6824 35 79 35 79" stroke="white" stroke-width="1.5" stroke-linecap="round" stroke-linejoin="round"/>
<path d="M125.135 89.5V77.82H127.407V89.5H125.135ZM127.087 84.636V82.716L131.759 82.7V84.62L127.087 84.636ZM127.087 79.74V77.82H131.983V79.74H127.087ZM138.864 89.5V86.924H138.496V84.06C138.496 83.5587 138.373 83.1853 138.128 82.94C137.883 82.6947 137.504 82.572 136.992 82.572C136.725 82.572 136.405 82.5773 136.032 82.588C135.659 82.5987 135.28 82.6147 134.896 82.636C134.523 82.6467 134.187 82.6627 133.888 82.684V80.796C134.133 80.7747 134.411 80.7533 134.72 80.732C135.029 80.7107 135.344 80.7 135.664 80.7C135.995 80.6893 136.304 80.684 136.592 80.684C137.488 80.684 138.229 80.8013 138.816 81.036C139.413 81.2707 139.861 81.6387 140.16 82.14C140.469 82.6413 140.624 83.2973 140.624 84.108V89.5H138.864ZM136.064 89.724C135.435 89.724 134.88 89.612 134.4 89.388C133.931 89.164 133.563 88.844 133.296 88.428C133.04 88.012 132.912 87.5107 132.912 86.924C132.912 86.284 133.067 85.7613 133.376 85.356C133.696 84.9507 134.139 84.6467 134.704 84.444C135.28 84.2413 135.952 84.14 136.72 84.14H138.736V85.468H136.688C136.176 85.468 135.781 85.596 135.504 85.852C135.237 86.0973 135.104 86.4173 135.104 86.812C135.104 87.2067 135.237 87.5267 135.504 87.772C135.781 88.0173 136.176 88.14 136.688 88.14C136.997 88.14 137.28 88.0867 137.536 87.98C137.803 87.8627 138.021 87.6707 138.192 87.404C138.373 87.1267 138.475 86.7533 138.496 86.284L139.04 86.908C138.987 87.516 138.837 88.028 138.592 88.444C138.357 88.86 138.027 89.18 137.6 89.404C137.184 89.6173 136.672 89.724 136.064 89.724ZM144.641 89.5L141.921 80.812H144.209L146.817 89.5H144.641ZM145.297 89.5V87.676H147.649V89.5H145.297ZM146.177 89.5L148.417 80.812H150.561L148.209 89.5H146.177ZM156.229 89.804C155.461 89.804 154.784 89.6813 154.197 89.436C153.61 89.1907 153.114 88.86 152.709 88.444C152.304 88.0173 151.994 87.5373 151.781 87.004C151.578 86.4707 151.477 85.916 151.477 85.34V85.004C151.477 84.4067 151.584 83.8413 151.797 83.308C152.021 82.764 152.336 82.284 152.741 81.868C153.157 81.4413 153.658 81.1107 154.245 80.876C154.832 80.6307 155.493 80.508 156.229 80.508C156.965 80.508 157.626 80.6307 158.213 80.876C158.8 81.1107 159.296 81.4413 159.701 81.868C160.117 82.284 160.432 82.764 160.645 83.308C160.858 83.8413 160.965 84.4067 160.965 85.004V85.34C160.965 85.916 160.858 86.4707 160.645 87.004C160.442 87.5373 160.138 88.0173 159.733 88.444C159.328 88.86 158.832 89.1907 158.245 89.436C157.658 89.6813 156.986 89.804 156.229 89.804ZM156.229 87.9C156.773 87.9 157.232 87.7827 157.605 87.548C157.978 87.3027 158.261 86.9773 158.453 86.572C158.645 86.156 158.741 85.6867 158.741 85.164C158.741 84.6307 158.64 84.1613 158.437 83.756C158.245 83.34 157.957 83.0147 157.573 82.78C157.2 82.5347 156.752 82.412 156.229 82.412C155.706 82.412 155.253 82.5347 154.869 82.78C154.496 83.0147 154.208 83.34 154.005 83.756C153.802 84.1613 153.701 84.6307 153.701 85.164C153.701 85.6867 153.797 86.156 153.989 86.572C154.192 86.9773 154.48 87.3027 154.853 87.548C155.226 87.7827 155.685 87.9 156.229 87.9ZM162.912 89.5V80.812H164.672V84.492H164.624C164.624 83.244 164.891 82.3 165.424 81.66C165.958 81.02 166.742 80.7 167.776 80.7H168.096V82.636H167.488C166.742 82.636 166.16 82.8387 165.744 83.244C165.339 83.6387 165.136 84.2147 165.136 84.972V89.5H162.912ZM170 89.5V80.812H172.224V89.5H170ZM168.784 82.476V80.812H172.224V82.476H168.784ZM170.816 79.772C170.379 79.772 170.054 79.66 169.84 79.436C169.638 79.2013 169.536 78.9133 169.536 78.572C169.536 78.2093 169.638 77.916 169.84 77.692C170.054 77.468 170.379 77.356 170.816 77.356C171.254 77.356 171.574 77.468 171.776 77.692C171.979 77.916 172.08 78.2093 172.08 78.572C172.08 78.9133 171.979 79.2013 171.776 79.436C171.574 79.66 171.254 79.772 170.816 79.772ZM178.563 89.612C177.763 89.612 177.102 89.5107 176.579 89.308C176.067 89.0947 175.683 88.7427 175.427 88.252C175.171 87.7507 175.043 87.0787 175.043 86.236L175.059 78.364H177.139L177.123 86.38C177.123 86.8067 177.235 87.1373 177.459 87.372C177.694 87.596 178.025 87.708 178.451 87.708H179.811V89.612H178.563ZM173.667 82.444V80.812H179.811V82.444H173.667ZM185.519 89.804C184.773 89.804 184.117 89.676 183.551 89.42C182.997 89.164 182.533 88.8227 182.159 88.396C181.797 87.9587 181.519 87.4733 181.327 86.94C181.146 86.4067 181.055 85.8627 181.055 85.308V85.004C181.055 84.428 181.146 83.8733 181.327 83.34C181.519 82.796 181.797 82.316 182.159 81.9C182.533 81.4733 182.991 81.1373 183.535 80.892C184.079 80.636 184.709 80.508 185.423 80.508C186.362 80.508 187.146 80.716 187.775 81.132C188.415 81.5373 188.895 82.076 189.215 82.748C189.535 83.4093 189.695 84.124 189.695 84.892V85.692H181.999V84.332H188.303L187.615 85.004C187.615 84.4493 187.535 83.9747 187.375 83.58C187.215 83.1853 186.97 82.8813 186.639 82.668C186.319 82.4547 185.914 82.348 185.423 82.348C184.933 82.348 184.517 82.46 184.175 82.684C183.834 82.908 183.573 83.2333 183.391 83.66C183.221 84.076 183.135 84.5773 183.135 85.164C183.135 85.708 183.221 86.1933 183.391 86.62C183.562 87.036 183.823 87.3667 184.175 87.612C184.527 87.8467 184.975 87.964 185.519 87.964C186.063 87.964 186.506 87.8573 186.847 87.644C187.189 87.42 187.407 87.148 187.503 86.828H189.551C189.423 87.4253 189.178 87.948 188.815 88.396C188.453 88.844 187.989 89.1907 187.423 89.436C186.869 89.6813 186.234 89.804 185.519 89.804ZM195.006 89.5V80.812H196.766V84.492H196.718C196.718 83.244 196.985 82.3 197.518 81.66C198.052 81.02 198.836 80.7 199.87 80.7H200.19V82.636H199.582C198.836 82.636 198.254 82.8387 197.838 83.244C197.433 83.6387 197.23 84.2147 197.23 84.972V89.5H195.006ZM205.504 89.804C204.757 89.804 204.101 89.676 203.536 89.42C202.981 89.164 202.517 88.8227 202.144 88.396C201.781 87.9587 201.504 87.4733 201.312 86.94C201.13 86.4067 201.04 85.8627 201.04 85.308V85.004C201.04 84.428 201.13 83.8733 201.312 83.34C201.504 82.796 201.781 82.316 202.144 81.9C202.517 81.4733 202.976 81.1373 203.52 80.892C204.064 80.636 204.693 80.508 205.408 80.508C206.346 80.508 207.13 80.716 207.76 81.132C208.4 81.5373 208.88 82.076 209.2 82.748C209.52 83.4093 209.68 84.124 209.68 84.892V85.692H201.984V84.332H208.288L207.6 85.004C207.6 84.4493 207.52 83.9747 207.36 83.58C207.2 83.1853 206.954 82.8813 206.624 82.668C206.304 82.4547 205.898 82.348 205.408 82.348C204.917 82.348 204.501 82.46 204.16 82.684C203.818 82.908 203.557 83.2333 203.376 83.66C203.205 84.076 203.12 84.5773 203.12 85.164C203.12 85.708 203.205 86.1933 203.376 86.62C203.546 87.036 203.808 87.3667 204.16 87.612C204.512 87.8467 204.96 87.964 205.504 87.964C206.048 87.964 206.49 87.8573 206.832 87.644C207.173 87.42 207.392 87.148 207.488 86.828H209.536C209.408 87.4253 209.162 87.948 208.8 88.396C208.437 88.844 207.973 89.1907 207.408 89.436C206.853 89.6813 206.218 89.804 205.504 89.804ZM211.537 92.7V80.812H213.297V84.556L213.025 84.54C213.068 83.6547 213.249 82.9133 213.569 82.316C213.9 81.7187 214.337 81.276 214.881 80.988C215.425 80.6893 216.033 80.54 216.705 80.54C217.324 80.54 217.879 80.652 218.369 80.876C218.871 81.1 219.297 81.4147 219.649 81.82C220.012 82.2253 220.289 82.7 220.481 83.244C220.673 83.7773 220.769 84.3533 220.769 84.972V85.308C220.769 85.9373 220.673 86.524 220.481 87.068C220.3 87.6013 220.028 88.076 219.665 88.492C219.313 88.8973 218.887 89.2173 218.385 89.452C217.884 89.676 217.324 89.788 216.705 89.788C216.055 89.788 215.457 89.6547 214.913 89.388C214.38 89.1107 213.948 88.6893 213.617 88.124C213.287 87.548 213.1 86.8067 213.057 85.9L213.761 86.972V92.7H211.537ZM216.145 87.916C216.625 87.916 217.041 87.7987 217.393 87.564C217.756 87.3293 218.039 87.004 218.241 86.588C218.444 86.1613 218.545 85.6813 218.545 85.148C218.545 84.5933 218.444 84.1133 218.241 83.708C218.039 83.3027 217.756 82.988 217.393 82.764C217.041 82.5293 216.625 82.412 216.145 82.412C215.708 82.412 215.303 82.508 214.929 82.7C214.567 82.892 214.268 83.1747 214.033 83.548C213.809 83.9213 213.697 84.3693 213.697 84.892V85.532C213.697 86.0333 213.815 86.46 214.049 86.812C214.284 87.164 214.588 87.436 214.961 87.628C215.335 87.82 215.729 87.916 216.145 87.916ZM226.901 89.804C226.133 89.804 225.456 89.6813 224.869 89.436C224.282 89.1907 223.786 88.86 223.381 88.444C222.976 88.0173 222.666 87.5373 222.453 87.004C222.25 86.4707 222.149 85.916 222.149 85.34V85.004C222.149 84.4067 222.256 83.8413 222.469 83.308C222.693 82.764 223.008 82.284 223.413 81.868C223.829 81.4413 224.33 81.1107 224.917 80.876C225.504 80.6307 226.165 80.508 226.901 80.508C227.637 80.508 228.298 80.6307 228.885 80.876C229.472 81.1107 229.968 81.4413 230.373 81.868C230.789 82.284 231.104 82.764 231.317 83.308C231.53 83.8413 231.637 84.4067 231.637 85.004V85.34C231.637 85.916 231.53 86.4707 231.317 87.004C231.114 87.5373 230.81 88.0173 230.405 88.444C230 88.86 229.504 89.1907 228.917 89.436C228.33 89.6813 227.658 89.804 226.901 89.804ZM226.901 87.9C227.445 87.9 227.904 87.7827 228.277 87.548C228.65 87.3027 228.933 86.9773 229.125 86.572C229.317 86.156 229.413 85.6867 229.413 85.164C229.413 84.6307 229.312 84.1613 229.109 83.756C228.917 83.34 228.629 83.0147 228.245 82.78C227.872 82.5347 227.424 82.412 226.901 82.412C226.378 82.412 225.925 82.5347 225.541 82.78C225.168 83.0147 224.88 83.34 224.677 83.756C224.474 84.1613 224.373 84.6307 224.373 85.164C224.373 85.6867 224.469 86.156 224.661 86.572C224.864 86.9773 225.152 87.3027 225.525 87.548C225.898 87.7827 226.357 87.9 226.901 87.9ZM236.736 89.772C235.542 89.772 234.603 89.5213 233.92 89.02C233.248 88.508 232.896 87.804 232.864 86.908H234.864C234.896 87.2067 235.062 87.4787 235.36 87.724C235.659 87.9693 236.128 88.092 236.768 88.092C237.302 88.092 237.723 87.996 238.032 87.804C238.352 87.612 238.512 87.3507 238.512 87.02C238.512 86.732 238.39 86.5027 238.144 86.332C237.91 86.1613 237.504 86.0493 236.928 85.996L236.16 85.916C235.19 85.8093 234.443 85.532 233.92 85.084C233.398 84.636 233.136 84.0387 233.136 83.292C233.136 82.6947 233.286 82.1933 233.584 81.788C233.883 81.3827 234.294 81.0787 234.816 80.876C235.35 80.6627 235.958 80.556 236.64 80.556C237.707 80.556 238.571 80.7907 239.232 81.26C239.894 81.7293 240.24 82.4173 240.272 83.324H238.272C238.251 83.0253 238.102 82.7693 237.824 82.556C237.547 82.3427 237.147 82.236 236.624 82.236C236.155 82.236 235.792 82.3267 235.536 82.508C235.28 82.6893 235.152 82.924 235.152 83.212C235.152 83.4893 235.254 83.7027 235.456 83.852C235.67 84.0013 236.011 84.1027 236.48 84.156L237.248 84.236C238.272 84.3427 239.072 84.6253 239.648 85.084C240.235 85.5427 240.528 86.1613 240.528 86.94C240.528 87.516 240.368 88.0173 240.048 88.444C239.739 88.86 239.302 89.1853 238.736 89.42C238.171 89.6547 237.504 89.772 236.736 89.772ZM245.931 89.5V77.82H248.155V89.5H245.931ZM244.843 79.484V77.82H248.155V79.484H244.843ZM251.11 89.5V80.812H253.334V89.5H251.11ZM249.894 82.476V80.812H253.334V82.476H249.894ZM251.926 79.772C251.488 79.772 251.163 79.66 250.95 79.436C250.747 79.2013 250.646 78.9133 250.646 78.572C250.646 78.2093 250.747 77.916 250.95 77.692C251.163 77.468 251.488 77.356 251.926 77.356C252.363 77.356 252.683 77.468 252.886 77.692C253.088 77.916 253.19 78.2093 253.19 78.572C253.19 78.9133 253.088 79.2013 252.886 79.436C252.683 79.66 252.363 79.772 251.926 79.772ZM259.049 89.772C257.854 89.772 256.915 89.5213 256.233 89.02C255.561 88.508 255.209 87.804 255.177 86.908H257.177C257.209 87.2067 257.374 87.4787 257.673 87.724C257.971 87.9693 258.441 88.092 259.081 88.092C259.614 88.092 260.035 87.996 260.345 87.804C260.665 87.612 260.825 87.3507 260.825 87.02C260.825 86.732 260.702 86.5027 260.457 86.332C260.222 86.1613 259.817 86.0493 259.241 85.996L258.473 85.916C257.502 85.8093 256.755 85.532 256.233 85.084C255.71 84.636 255.449 84.0387 255.449 83.292C255.449 82.6947 255.598 82.1933 255.897 81.788C256.195 81.3827 256.606 81.0787 257.129 80.876C257.662 80.6627 258.27 80.556 258.953 80.556C260.019 80.556 260.883 80.7907 261.545 81.26C262.206 81.7293 262.553 82.4173 262.585 83.324H260.585C260.563 83.0253 260.414 82.7693 260.137 82.556C259.859 82.3427 259.459 82.236 258.937 82.236C258.467 82.236 258.105 82.3267 257.849 82.508C257.593 82.6893 257.465 82.924 257.465 83.212C257.465 83.4893 257.566 83.7027 257.769 83.852C257.982 84.0013 258.323 84.1027 258.793 84.156L259.561 84.236C260.585 84.3427 261.385 84.6253 261.961 85.084C262.547 85.5427 262.841 86.1613 262.841 86.94C262.841 87.516 262.681 88.0173 262.361 88.444C262.051 88.86 261.614 89.1853 261.049 89.42C260.483 89.6547 259.817 89.772 259.049 89.772ZM268.454 89.612C267.654 89.612 266.993 89.5107 266.47 89.308C265.958 89.0947 265.574 88.7427 265.318 88.252C265.062 87.7507 264.934 87.0787 264.934 86.236L264.95 78.364H267.03L267.014 86.38C267.014 86.8067 267.126 87.1373 267.35 87.372C267.585 87.596 267.915 87.708 268.342 87.708H269.702V89.612H268.454ZM263.558 82.444V80.812H269.702V82.444H263.558Z" fill="#1C2027"/>
</g>
<defs>
<filter id="filter0_dd_9_871" x="-18" y="-14" width="430" height="156" filterUnits="userSpaceOnUse" color-interpolation-filters="sRGB">
<feFlood flood-opacity="0" result="BackgroundImageFix"/>
<feColorMatrix in="SourceAlpha" type="matrix" values="0 0 0 0 0 0 0 0 0 0 0 0 0 0 0 0 0 0 127 0" result="hardAlpha"/>
<feOffset dy="6"/>
<feGaussianBlur stdDeviation="10"/>
<feComposite in2="hardAlpha" operator="out"/>
<feColorMatrix type="matrix" values="0 0 0 0 0.321569 0 0 0 0 0.364706 0 0 0 0 0.439216 0 0 0 0.1 0"/>
<feBlend mode="normal" in2="BackgroundImageFix" result="effect1_dropShadow_9_871"/>
<feColorMatrix in="SourceAlpha" type="matrix" values="0 0 0 0 0 0 0 0 0 0 0 0 0 0 0 0 0 0 127 0" result="hardAlpha"/>
<feOffset/>
<feGaussianBlur stdDeviation="3"/>
<feComposite in2="hardAlpha" operator="out"/>
<feColorMatrix type="matrix" values="0 0 0 0 0.321569 0 0 0 0 0.364706 0 0 0 0 0.439216 0 0 0 0.06 0"/>
<feBlend mode="normal" in2="effect1_dropShadow_9_871" result="effect2_dropShadow_9_871"/>
<feBlend mode="normal" in="SourceGraphic" in2="effect2_dropShadow_9_871" result="shape"/>
</filter>
</defs>
</svg>
